<svg xmlns="http://www.w3.org/2000/svg" xmlns:xlink="http://www.w3.org/1999/xlink" contentStyleType="text/css" data-diagram-type="MINDMAP" height="379px" preserveAspectRatio="none" style="width:780px;height:379px;background:#FFFFFF;" version="1.1" viewBox="0 0 780 379" width="780px" zoomAndPan="magnify"><defs/><g><rect fill="#F1F1F1" height="36.4883" rx="12.5" ry="12.5" style="stroke:#181818;stroke-width:1.5;" width="38.0127" x="10" y="170.4648"/><text fill="#000000" font-family="sans-serif" font-size="14" lengthAdjust="spacing" textLength="18.0127" x="20" y="194">git</text><rect fill="#F1F1F1" height="36.4883" rx="12.5" ry="12.5" style="stroke:#181818;stroke-width:1.5;" width="73.5117" x="98.0127" y="76.4883"/><text fill="#000000" font-family="sans-serif" font-size="14" lengthAdjust="spacing" textLength="53.5117" x="108.0127" y="100.0234">git grep</text><rect fill="#F1F1F1" height="36.4883" rx="12.5" ry="12.5" style="stroke:#181818;stroke-width:1.5;" width="128.7598" x="221.5244" y="20"/><text fill="#000000" font-family="sans-serif" font-size="14" lengthAdjust="spacing" textLength="108.7598" x="231.5244" y="43.5352">git grep "&lt;str&gt;"</text><text fill="#000000" font-family="sans-serif" font-size="14" lengthAdjust="spacing" textLength="254.1738" x="403.2842" y="43.5352">search for &lt;str&gt; in working directory</text><path d="M350.2842,38.2441 L360.2842,38.2441 C375.2842,38.2441 375.2842,38.2441 390.2842,38.2441 L400.2842,38.2441" fill="none" style="stroke:#181818;stroke-width:1;"/><path d="M171.5244,94.7324 L181.5244,94.7324 C196.5244,94.7324 196.5244,38.2441 211.5244,38.2441 L221.5244,38.2441" fill="none" style="stroke:#181818;stroke-width:1;"/><rect fill="#F1F1F1" height="36.4883" rx="12.5" ry="12.5" style="stroke:#181818;stroke-width:1.5;" width="259.3877" x="221.5244" y="76.4883"/><text fill="#000000" font-family="sans-serif" font-size="14" lengthAdjust="spacing" textLength="239.3877" x="231.5244" y="100.0234">git grep "&lt;str&gt;" $(git rev-list --all)</text><text fill="#000000" font-family="sans-serif" font-size="14" lengthAdjust="spacing" textLength="213.1309" x="533.9121" y="100.0234">search for &lt;str&gt; in all commits</text><path d="M480.9121,94.7324 L490.9121,94.7324 C505.9121,94.7324 505.9121,94.7324 520.9121,94.7324 L530.9121,94.7324" fill="none" style="stroke:#181818;stroke-width:1;"/><path d="M171.5244,94.7324 L181.5244,94.7324 C196.5244,94.7324 196.5244,94.7324 211.5244,94.7324 L221.5244,94.7324" fill="none" style="stroke:#181818;stroke-width:1;"/><rect fill="#F1F1F1" height="36.4883" rx="12.5" ry="12.5" style="stroke:#181818;stroke-width:1.5;" width="213.9082" x="221.5244" y="132.9766"/><text fill="#000000" font-family="sans-serif" font-size="14" lengthAdjust="spacing" textLength="193.9082" x="231.5244" y="156.5117">git grep "&lt;str&gt;" origin/main</text><text fill="#000000" font-family="sans-serif" font-size="14" lengthAdjust="spacing" textLength="193.5254" x="488.4326" y="156.5117">search for &lt;str&gt; in a branch</text><path d="M435.4326,151.2207 L445.4326,151.2207 C460.4326,151.2207 460.4326,151.2207 475.4326,151.2207 L485.4326,151.2207" fill="none" style="stroke:#181818;stroke-width:1;"/><path d="M171.5244,94.7324 L181.5244,94.7324 C196.5244,94.7324 196.5244,151.2207 211.5244,151.2207 L221.5244,151.2207" fill="none" style="stroke:#181818;stroke-width:1;"/><path d="M48.0127,188.709 L58.0127,188.709 C73.0127,188.709 73.0127,94.7324 88.0127,94.7324 L98.0127,94.7324" fill="none" style="stroke:#181818;stroke-width:1;"/><rect fill="#F1F1F1" height="36.4883" rx="12.5" ry="12.5" style="stroke:#181818;stroke-width:1.5;" width="63.8184" x="98.0127" y="255.1973"/><text fill="#000000" font-family="sans-serif" font-size="14" lengthAdjust="spacing" textLength="43.8184" x="108.0127" y="278.7324">git log</text><text fill="#000000" font-family="sans-serif" font-size="14" lengthAdjust="spacing" textLength="65.8711" x="214.8311" y="194">--oneline</text><path d="M161.8311,273.4414 L171.8311,273.4414 C186.8311,273.4414 186.8311,188.709 201.8311,188.709 L211.8311,188.709" fill="none" style="stroke:#181818;stroke-width:1;"/><rect fill="#F1F1F1" height="36.4883" rx="12.5" ry="12.5" style="stroke:#181818;stroke-width:1.5;" width="183.7275" x="211.8311" y="207.9531"/><text fill="#000000" font-family="sans-serif" font-size="14" lengthAdjust="spacing" textLength="163.7275" x="221.8311" y="231.4883">git log -p -G &lt;pattern&gt;</text><text fill="#000000" font-family="sans-serif" font-size="14" lengthAdjust="spacing" textLength="68.1611" x="448.5586" y="231.4883">search for</text><text fill="#000000" font-family="sans-serif" font-size="14" font-weight="bold" lengthAdjust="spacing" textLength="61.6875" x="521.1494" y="231.4883">commits</text><text fill="#000000" font-family="sans-serif" font-size="14" lengthAdjust="spacing" textLength="180.8242" x="587.2666" y="231.4883">that introduced &lt;pattern&gt;</text><path d="M395.5586,226.1973 L405.5586,226.1973 C420.5586,226.1973 420.5586,226.1973 435.5586,226.1973 L445.5586,226.1973" fill="none" style="stroke:#181818;stroke-width:1;"/><path d="M161.8311,273.4414 L171.8311,273.4414 C186.8311,273.4414 186.8311,226.1973 201.8311,226.1973 L211.8311,226.1973" fill="none" style="stroke:#181818;stroke-width:1;"/><rect fill="#F1F1F1" height="36.4883" rx="12.5" ry="12.5" style="stroke:#181818;stroke-width:1.5;" width="128.6777" x="211.8311" y="264.4414"/><text fill="#000000" font-family="sans-serif" font-size="14" lengthAdjust="spacing" textLength="108.6777" x="221.8311" y="287.9766">git log -S &lt;str&gt;</text><text fill="#000000" font-family="sans-serif" font-size="14" lengthAdjust="spacing" textLength="68.1611" x="393.5088" y="287.9766">search for</text><text fill="#000000" font-family="sans-serif" font-size="14" font-weight="bold" lengthAdjust="spacing" textLength="61.6875" x="466.0996" y="287.9766">commits</text><text fill="#000000" font-family="sans-serif" font-size="14" lengthAdjust="spacing" textLength="200.3203" x="532.2168" y="287.9766">that added or removed &lt;str&gt;</text><path d="M340.5088,282.6855 L350.5088,282.6855 C365.5088,282.6855 365.5088,282.6855 380.5088,282.6855 L390.5088,282.6855" fill="none" style="stroke:#181818;stroke-width:1;"/><path d="M161.8311,273.4414 L171.8311,273.4414 C186.8311,273.4414 186.8311,282.6855 201.8311,282.6855 L211.8311,282.6855" fill="none" style="stroke:#181818;stroke-width:1;"/><rect fill="#F1F1F1" height="36.4883" rx="12.5" ry="12.5" style="stroke:#181818;stroke-width:1.5;" width="208.5967" x="211.8311" y="320.9297"/><text fill="#000000" font-family="sans-serif" font-size="14" lengthAdjust="spacing" textLength="188.5967" x="221.8311" y="344.4648">git log --grep="&lt;pattern&gt;"</text><text fill="#000000" font-family="sans-serif" font-size="14" lengthAdjust="spacing" textLength="274.0732" x="473.4277" y="344.4648">search *commit messages* for a pattern</text><path d="M420.4277,339.1738 L430.4277,339.1738 C445.4277,339.1738 445.4277,339.1738 460.4277,339.1738 L470.4277,339.1738" fill="none" style="stroke:#181818;stroke-width:1;"/><path d="M161.8311,273.4414 L171.8311,273.4414 C186.8311,273.4414 186.8311,339.1738 201.8311,339.1738 L211.8311,339.1738" fill="none" style="stroke:#181818;stroke-width:1;"/><path d="M48.0127,188.709 L58.0127,188.709 C73.0127,188.709 73.0127,273.4414 88.0127,273.4414 L98.0127,273.4414" fill="none" style="stroke:#181818;stroke-width:1;"/><!--SRC=[ZPBTRjim38NlzHH4i8l4WBeao8REw8fYRLSWIxPYINixg3Rh2BCeWw8zzEr7vwV1jgBOZIppa1-FH5qaSIp1KnbS0vKNa-tMxGSgnaRtnnyOd2NXyq4Vp7v0GiV51XuZmpOEdk1Nv9-UAYWzOo6Hdru4m9jX7sBiREsJWBMkhaUlO5M68eRW9RqCZEmhJs-3y_GQ1XxOKR4vdB2EbTacMni9Qq_uJ5S9R0Fs1iuQ9u9Cv_-2isnlIejauqHx2CUoBR3yi-o8NEtS_0VBbQLYL64CiUk9Xy8ZpVQNy77mtEklqUoH430bLs7AjfqSxDFD1UheT-CtvhPs97VB1NJ8oKU2oSbqF7rtCXaFrot2rzZ1U0QJqtmwpcSVuF9w3Rq-CiERsmMas7A1EdSrwHzQKS38p5tdu7jBuWFcyAr1cbzzEGJWcZhFaGAIcFdzyfZmVcO_gUiLibg1-wMvmaVNrg8LHIprUULmj_viJyt2KTNgmN90CfTHkVoasket]--></g></svg>